<svg width="24" height="25" viewBox="0 0 24 25" fill="none" xmlns="http://www.w3.org/2000/svg">
<path opacity="0.1" fill-rule="evenodd" clip-rule="evenodd" d="M0 12.3857C0 5.75833 5.37258 0.385742 12 0.385742C18.6274 0.385742 24 5.75833 24 12.3857C24 19.0132 18.6274 24.3857 12 24.3857C5.37258 24.3857 0 19.0132 0 12.3857Z" fill="#F9F8F9"/>
<path fill-rule="evenodd" clip-rule="evenodd" d="M12.0007 5.98572C10.2625 5.98572 10.0444 5.99332 9.36174 6.02438C8.6804 6.05559 8.21533 6.16345 7.80839 6.32172C7.38745 6.48519 7.03038 6.70386 6.67464 7.05973C6.31864 7.41547 6.09997 7.77254 5.93597 8.19334C5.7773 8.60041 5.6693 9.06562 5.63863 9.74669C5.6081 10.4294 5.6001 10.6476 5.6001 12.3858C5.6001 14.1239 5.60783 14.3414 5.63876 15.0241C5.6701 15.7054 5.77797 16.1705 5.9361 16.5774C6.0997 16.9984 6.31837 17.3554 6.67424 17.7112C7.02985 18.0672 7.38692 18.2864 7.80759 18.4498C8.21479 18.6081 8.68 18.716 9.3612 18.7472C10.0439 18.7783 10.2619 18.7859 11.9999 18.7859C13.7382 18.7859 13.9557 18.7783 14.6383 18.7472C15.3197 18.716 15.7853 18.6081 16.1925 18.4498C16.6133 18.2864 16.9698 18.0672 17.3254 17.7112C17.6814 17.3554 17.9001 16.9984 18.0641 16.5776C18.2214 16.1705 18.3294 15.7053 18.3614 15.0242C18.3921 14.3415 18.4001 14.1239 18.4001 12.3858C18.4001 10.6476 18.3921 10.4295 18.3614 9.74682C18.3294 9.06548 18.2214 8.60041 18.0641 8.19347C17.9001 7.77254 17.6814 7.41547 17.3254 7.05973C16.9694 6.70373 16.6134 6.48506 16.1921 6.32172C15.7841 6.16345 15.3187 6.05559 14.6374 6.02438C13.9547 5.99332 13.7374 5.98572 11.9987 5.98572H12.0007ZM11.4265 7.13905C11.5969 7.13878 11.7871 7.13905 12.0007 7.13905C13.7095 7.13905 13.912 7.14518 14.5868 7.17585C15.2108 7.20438 15.5495 7.30865 15.7751 7.39625C16.0738 7.51225 16.2867 7.65092 16.5106 7.87492C16.7346 8.09892 16.8733 8.31226 16.9895 8.61093C17.0771 8.83626 17.1815 9.17493 17.2099 9.79894C17.2406 10.4736 17.2473 10.6763 17.2473 12.3843C17.2473 14.0923 17.2406 14.295 17.2099 14.9697C17.1814 15.5937 17.0771 15.9323 16.9895 16.1577C16.8735 16.4563 16.7346 16.669 16.5106 16.8929C16.2866 17.1169 16.0739 17.2556 15.7751 17.3716C15.5498 17.4596 15.2108 17.5636 14.5868 17.5921C13.9122 17.6228 13.7095 17.6294 12.0007 17.6294C10.2917 17.6294 10.0892 17.6228 9.41451 17.5921C8.7905 17.5633 8.45183 17.459 8.2261 17.3714C7.92743 17.2554 7.71409 17.1167 7.49009 16.8927C7.26609 16.6687 7.12742 16.4559 7.01115 16.1571C6.92355 15.9318 6.81915 15.5931 6.79075 14.9691C6.76008 14.2945 6.75395 14.0918 6.75395 12.3827C6.75395 10.6736 6.76008 10.472 6.79075 9.79734C6.81928 9.17333 6.92355 8.83466 7.01115 8.60906C7.12715 8.31039 7.26609 8.09706 7.49009 7.87305C7.71409 7.64905 7.92743 7.51038 8.2261 7.39411C8.4517 7.30611 8.7905 7.20211 9.41451 7.17345C10.0049 7.14678 10.2337 7.13878 11.4265 7.13745V7.13905ZM15.417 8.20173C14.993 8.20173 14.649 8.54533 14.649 8.96947C14.649 9.39347 14.993 9.73747 15.417 9.73747C15.841 9.73747 16.185 9.39347 16.185 8.96947C16.185 8.54546 15.841 8.20173 15.417 8.20173ZM12.0007 9.09907C10.1856 9.09907 8.71401 10.5707 8.71401 12.3858C8.71401 14.2009 10.1856 15.6718 12.0007 15.6718C13.8158 15.6718 15.2869 14.2009 15.2869 12.3858C15.2869 10.5707 13.8158 9.09907 12.0007 9.09907ZM12.0007 10.2524C13.1788 10.2524 14.134 11.2075 14.134 12.3858C14.134 13.5639 13.1788 14.5191 12.0007 14.5191C10.8224 14.5191 9.86733 13.5639 9.86733 12.3858C9.86733 11.2075 10.8224 10.2524 12.0007 10.2524Z" fill="white"/>
</svg>
