<svg width="24" height="25" viewBox="0 0 24 25" fill="none" xmlns="http://www.w3.org/2000/svg">
<path opacity="0.1" fill-rule="evenodd" clip-rule="evenodd" d="M0 12.3857C0 5.75833 5.37258 0.385742 12 0.385742C18.6274 0.385742 24 5.75833 24 12.3857C24 19.0132 18.6274 24.3857 12 24.3857C5.37258 24.3857 0 19.0132 0 12.3857Z" fill="#F9F8F9"/>
<path fill-rule="evenodd" clip-rule="evenodd" d="M18.4001 12.3768C18.4001 12.8097 18.356 13.2419 18.2695 13.6632C18.1851 14.0745 18.0601 14.4783 17.8963 14.8643C17.7363 15.2435 17.5379 15.6089 17.306 15.9497C17.0776 16.2883 16.8144 16.606 16.5253 16.8956C16.2356 17.1839 15.9169 17.4463 15.5784 17.6757C15.2365 17.906 14.8706 18.1042 14.4912 18.2649C14.1046 18.4278 13.6999 18.5526 13.2889 18.6369C12.867 18.7236 12.4333 18.7679 11.9998 18.7679C11.566 18.7679 11.1323 18.7236 10.711 18.6369C10.2994 18.5526 9.89471 18.4278 9.50844 18.2649C9.12905 18.1042 8.76277 17.906 8.42088 17.6757C8.08243 17.4464 7.76366 17.1839 7.47458 16.8956C7.1852 16.606 6.92205 16.2883 6.69329 15.9497C6.46265 15.6089 6.26388 15.2435 6.10326 14.8643C5.93948 14.4783 5.81418 14.0745 5.72948 13.6632C5.64386 13.2419 5.6001 12.8097 5.6001 12.3768C5.6001 11.9437 5.64384 11.5106 5.72951 11.0902C5.8142 10.6789 5.9395 10.2744 6.10328 9.88904C6.2639 9.50958 6.46268 9.14385 6.69332 8.80306C6.92207 8.46416 7.18523 8.14709 7.47461 7.85717C7.76369 7.56881 8.08245 7.30701 8.42091 7.07796C8.76279 6.8467 9.12908 6.64857 9.50846 6.48753C9.89474 6.32428 10.2994 6.19916 10.711 6.11554C11.1323 6.02942 11.5661 5.98572 11.9998 5.98572C12.4333 5.98572 12.8671 6.02942 13.2889 6.11554C13.6999 6.19919 14.1046 6.32431 14.4912 6.48753C14.8706 6.64854 15.2366 6.8467 15.5784 7.07796C15.9169 7.30701 16.2357 7.56881 16.5254 7.85717C16.8144 8.14709 17.0776 8.46416 17.306 8.80306C17.5379 9.14385 17.7363 9.5096 17.8963 9.88904C18.0601 10.2744 18.1851 10.6789 18.2695 11.0902C18.356 11.5106 18.4001 11.9437 18.4001 12.3768ZM9.66779 7.44025C8.14363 8.15896 7.00607 9.56137 6.65136 11.2515C6.79545 11.2528 9.07307 11.2815 11.6973 10.5853C10.7513 8.90695 9.74061 7.53733 9.66779 7.44025ZM12.1501 11.4257C9.33589 12.267 6.63543 12.2064 6.53856 12.2027C6.53698 12.2614 6.53417 12.3182 6.53417 12.3768C6.53417 13.7789 7.06389 15.0572 7.93456 16.0236C7.93268 16.0208 9.4284 13.3711 12.3779 12.4187C12.4492 12.3949 12.5217 12.3737 12.5936 12.3531C12.4564 12.043 12.3067 11.7321 12.1501 11.4257ZM15.6094 8.28066C14.6471 7.43338 13.3836 6.91944 11.9998 6.91944C11.5557 6.91944 11.1247 6.97312 10.7119 7.07235C10.7938 7.18221 11.8204 8.54218 12.7551 10.256C14.8174 9.48399 15.5959 8.30062 15.6094 8.28066ZM12.9661 13.2575C12.9539 13.2615 12.9418 13.265 12.9299 13.2693C9.70507 14.3919 8.65196 16.6543 8.64057 16.679C9.56845 17.3995 10.7323 17.8342 11.9998 17.8342C12.7567 17.8342 13.4777 17.6804 14.1337 17.4017C14.0527 16.9249 13.7352 15.2535 12.9661 13.2575ZM15.054 16.903C16.2813 16.0761 17.1528 14.7629 17.396 13.2419C17.2835 13.2057 15.7543 12.7223 13.9902 13.0047C14.7071 14.972 14.9984 16.5741 15.054 16.903ZM13.1758 11.0693C13.3027 11.3295 13.4255 11.5944 13.539 11.8607C13.5793 11.9562 13.6187 12.0498 13.6571 12.1434C15.5347 11.9075 17.3845 12.3044 17.4635 12.3206C17.451 11.0268 16.9876 9.83941 16.2207 8.90978C16.2104 8.92442 15.3338 10.1892 13.1758 11.0693Z" fill="white"/>
</svg>
