<svg width="144" height="36" viewBox="0 0 144 36" fill="none" xmlns="http://www.w3.org/2000/svg">
<circle cx="18" cy="18" r="18" fill="#094B72"/>
<path d="M55.32 25.14C54.2933 25.14 53.3733 24.9733 52.56 24.64C51.7467 24.3067 51.0933 23.8133 50.6 23.16C50.12 22.5067 49.8667 21.72 49.84 20.8H53.48C53.5333 21.32 53.7133 21.72 54.02 22C54.3267 22.2667 54.7267 22.4 55.22 22.4C55.7267 22.4 56.1267 22.2867 56.42 22.06C56.7133 21.82 56.86 21.4933 56.86 21.08C56.86 20.7333 56.74 20.4467 56.5 20.22C56.2733 19.9933 55.9867 19.8067 55.64 19.66C55.3067 19.5133 54.8267 19.3467 54.2 19.16C53.2933 18.88 52.5533 18.6 51.98 18.32C51.4067 18.04 50.9133 17.6267 50.5 17.08C50.0867 16.5333 49.88 15.82 49.88 14.94C49.88 13.6333 50.3533 12.6133 51.3 11.88C52.2467 11.1333 53.48 10.76 55 10.76C56.5467 10.76 57.7933 11.1333 58.74 11.88C59.6867 12.6133 60.1933 13.64 60.26 14.96H56.56C56.5333 14.5067 56.3667 14.1533 56.06 13.9C55.7533 13.6333 55.36 13.5 54.88 13.5C54.4667 13.5 54.1333 13.6133 53.88 13.84C53.6267 14.0533 53.5 14.3667 53.5 14.78C53.5 15.2333 53.7133 15.5867 54.14 15.84C54.5667 16.0933 55.2333 16.3667 56.14 16.66C57.0467 16.9667 57.78 17.26 58.34 17.54C58.9133 17.82 59.4067 18.2267 59.82 18.76C60.2333 19.2933 60.44 19.98 60.44 20.82C60.44 21.62 60.2333 22.3467 59.82 23C59.42 23.6533 58.8333 24.1733 58.06 24.56C57.2867 24.9467 56.3733 25.14 55.32 25.14ZM80.0647 13.84L77.0447 25H73.2647L71.5047 17.76L69.6847 25H65.9247L62.8847 13.84H66.3047L67.8847 21.82L69.7647 13.84H73.3847L75.2847 21.78L76.8447 13.84H80.0647ZM84.5889 12.68C83.9889 12.68 83.4956 12.5067 83.1089 12.16C82.7356 11.8 82.5489 11.36 82.5489 10.84C82.5489 10.3067 82.7356 9.86667 83.1089 9.52C83.4956 9.16 83.9889 8.98 84.5889 8.98C85.1756 8.98 85.6556 9.16 86.0289 9.52C86.4156 9.86667 86.6089 10.3067 86.6089 10.84C86.6089 11.36 86.4156 11.8 86.0289 12.16C85.6556 12.5067 85.1756 12.68 84.5889 12.68ZM86.2889 13.84V25H82.8689V13.84H86.2889ZM95.8673 16.68H94.0273V25H90.6073V16.68H89.3673V13.84H90.6073V13.52C90.6073 12.1467 91.0007 11.1067 91.7873 10.4C92.574 9.68 93.7273 9.32 95.2473 9.32C95.5007 9.32 95.6873 9.32667 95.8073 9.34V12.24C95.154 12.2 94.694 12.2933 94.4273 12.52C94.1607 12.7467 94.0273 13.1533 94.0273 13.74V13.84H95.8673V16.68ZM105.194 22.1V25H103.454C102.214 25 101.248 24.7 100.554 24.1C99.861 23.4867 99.5144 22.4933 99.5144 21.12V16.68H98.1544V13.84H99.5144V11.12H102.934V13.84H105.174V16.68H102.934V21.16C102.934 21.4933 103.014 21.7333 103.174 21.88C103.334 22.0267 103.601 22.1 103.974 22.1H105.194ZM117.739 10.96V13.7H112.019V16.66H116.299V19.32H112.019V25H108.599V10.96H117.739ZM122.757 12.68C122.157 12.68 121.664 12.5067 121.277 12.16C120.904 11.8 120.717 11.36 120.717 10.84C120.717 10.3067 120.904 9.86667 121.277 9.52C121.664 9.16 122.157 8.98 122.757 8.98C123.344 8.98 123.824 9.16 124.197 9.52C124.584 9.86667 124.777 10.3067 124.777 10.84C124.777 11.36 124.584 11.8 124.197 12.16C123.824 12.5067 123.344 12.68 122.757 12.68ZM124.457 13.84V25H121.037V13.84H124.457ZM135.035 25L132.895 21.9L131.095 25H127.395L131.075 19.3L127.295 13.84H131.135L133.275 16.92L135.075 13.84H138.775L135.035 19.46L138.875 25H135.035Z" fill="#2D2F30"/>
<path d="M18.584 26.168C17.352 26.168 16.248 25.968 15.272 25.568C14.296 25.168 13.512 24.576 12.92 23.792C12.344 23.008 12.04 22.064 12.008 20.96H16.376C16.44 21.584 16.656 22.064 17.024 22.4C17.392 22.72 17.872 22.88 18.464 22.88C19.072 22.88 19.552 22.744 19.904 22.472C20.256 22.184 20.432 21.792 20.432 21.296C20.432 20.88 20.288 20.536 20 20.264C19.728 19.992 19.384 19.768 18.968 19.592C18.568 19.416 17.992 19.216 17.24 18.992C16.152 18.656 15.264 18.32 14.576 17.984C13.888 17.648 13.296 17.152 12.8 16.496C12.304 15.84 12.056 14.984 12.056 13.928C12.056 12.36 12.624 11.136 13.76 10.256C14.896 9.36 16.376 8.912 18.2 8.912C20.056 8.912 21.552 9.36 22.688 10.256C23.824 11.136 24.432 12.368 24.512 13.952H20.072C20.04 13.408 19.84 12.984 19.472 12.68C19.104 12.36 18.632 12.2 18.056 12.2C17.56 12.2 17.16 12.336 16.856 12.608C16.552 12.864 16.4 13.24 16.4 13.736C16.4 14.28 16.656 14.704 17.168 15.008C17.68 15.312 18.48 15.64 19.568 15.992C20.656 16.36 21.536 16.712 22.208 17.048C22.896 17.384 23.488 17.872 23.984 18.512C24.48 19.152 24.728 19.976 24.728 20.984C24.728 21.944 24.48 22.816 23.984 23.6C23.504 24.384 22.8 25.008 21.872 25.472C20.944 25.936 19.848 26.168 18.584 26.168Z" fill="white"/>
</svg>
