<svg width="37" height="37" viewBox="0 0 37 37" fill="none" xmlns="http://www.w3.org/2000/svg">
<path d="M9.25008 25.4375C8.18289 25.4375 7.13966 25.1211 6.25232 24.5282C5.36498 23.9353 4.67338 23.0926 4.26498 22.1066C3.85659 21.1206 3.74973 20.0357 3.95793 18.989C4.16613 17.9423 4.68003 16.9809 5.43465 16.2263C6.18927 15.4717 7.15072 14.9578 8.19741 14.7496C9.2441 14.5414 10.329 14.6482 11.315 15.0566C12.3009 15.465 13.1437 16.1566 13.7366 17.0439C14.3295 17.9313 14.6459 18.9745 14.6459 20.0417C14.6442 21.4722 14.0751 22.8437 13.0636 23.8552C12.0521 24.8668 10.6806 25.4358 9.25008 25.4375Z" fill="#0388A9"/>
<path d="M13.3205 23.5441C12.8209 24.1372 12.1978 24.6139 11.4947 24.941C10.7916 25.2681 10.0255 25.4375 9.25008 25.4375C8.47463 25.4375 7.70855 25.2681 7.00546 24.941C6.30236 24.6139 5.67923 24.1372 5.17968 23.5441C4.06967 24.2323 3.15321 25.1918 2.51673 26.3323C1.88025 27.4727 1.54471 28.7565 1.54175 30.0625C1.54175 30.4714 1.70417 30.8635 1.99329 31.1527C2.28241 31.4418 2.67454 31.6042 3.08341 31.6042H15.4167C15.8256 31.6042 16.2178 31.4418 16.5069 31.1527C16.796 30.8635 16.9584 30.4714 16.9584 30.0625C16.9555 28.7565 16.6199 27.4727 15.9834 26.3323C15.347 25.1918 14.4305 24.2323 13.3205 23.5441V23.5441ZM27.7501 25.4375C26.6829 25.4375 25.6397 25.1211 24.7523 24.5282C23.865 23.9353 23.1734 23.0926 22.765 22.1066C22.3566 21.1206 22.2497 20.0357 22.4579 18.989C22.6661 17.9423 23.18 16.9809 23.9347 16.2263C24.6893 15.4717 25.6507 14.9578 26.6974 14.7496C27.7441 14.5414 28.829 14.6482 29.815 15.0566C30.8009 15.465 31.6436 16.1566 32.2366 17.0439C32.8295 17.9313 33.1459 18.9745 33.1459 20.0417C33.1442 21.4722 32.5751 22.8437 31.5636 23.8552C30.5521 24.8668 29.1806 25.4358 27.7501 25.4375Z" fill="#F2F7FF"/>
<path d="M31.8205 23.5441C31.3209 24.1372 30.6978 24.6139 29.9947 24.941C29.2916 25.2681 28.5255 25.4375 27.7501 25.4375C26.9746 25.4375 26.2086 25.2681 25.5055 24.941C24.8024 24.6139 24.1792 24.1372 23.6797 23.5441C22.5697 24.2323 21.6532 25.1918 21.0167 26.3323C20.3802 27.4727 20.0447 28.7565 20.0417 30.0626C20.0417 30.4714 20.2042 30.8636 20.4933 31.1527C20.7824 31.4418 21.1745 31.6042 21.5834 31.6042H33.9167C34.3256 31.6042 34.7178 31.4418 35.0069 31.1527C35.296 30.8636 35.4584 30.4714 35.4584 30.0626C35.4555 28.7565 35.1199 27.4727 34.4834 26.3323C33.847 25.1918 32.9305 24.2323 31.8205 23.5441V23.5441Z" fill="#027794"/>
<path d="M26.5276 8.93085L23.4442 5.84751C23.1543 5.56275 22.7636 5.40402 22.3572 5.40586C21.9508 5.4077 21.5615 5.56996 21.2742 5.85734C20.9868 6.14472 20.8245 6.53395 20.8227 6.94036C20.8208 7.34677 20.9796 7.73746 21.2643 8.02743L21.716 8.47914H15.2843L15.736 8.02743C16.0221 7.73772 16.1819 7.34659 16.1806 6.93945C16.1793 6.5323 16.017 6.1422 15.7291 5.8543C15.4412 5.56641 15.0511 5.40411 14.644 5.40284C14.2368 5.40157 13.8457 5.56142 13.556 5.84751L10.4727 8.93085C10.3295 9.07396 10.2159 9.24388 10.1384 9.43091C10.0609 9.61794 10.021 9.8184 10.021 10.0208C10.021 10.2233 10.0609 10.4238 10.1384 10.6108C10.2159 10.7978 10.3295 10.9677 10.4727 11.1109L13.556 14.1942C13.8457 14.4803 14.2368 14.6401 14.644 14.6388C15.0511 14.6375 15.4412 14.4752 15.7291 14.1873C16.017 13.8994 16.1793 13.5093 16.1806 13.1021C16.1819 12.695 16.022 12.3039 15.7359 12.0142L15.2842 11.5625H21.7159L21.2641 12.0142C20.9751 12.3033 20.8127 12.6954 20.8127 13.1042C20.8127 13.513 20.9751 13.9051 21.2642 14.1942C21.5533 14.4833 21.9454 14.6457 22.3543 14.6456C22.7631 14.6456 23.1552 14.4832 23.4442 14.1941L26.5276 11.1108C26.6708 10.9676 26.7843 10.7977 26.8618 10.6107C26.9393 10.4237 26.9792 10.2232 26.9792 10.0208C26.9792 9.81837 26.9393 9.61791 26.8618 9.43089C26.7843 9.24388 26.6708 9.07396 26.5276 8.93085V8.93085Z" fill="#027794"/>
</svg>
